<?xml version="1.0" encoding="UTF-8" standalone="no" ?>
<!DOCTYPE svg PUBLIC "-//W3C//DTD SVG 1.1//EN" "http://www.w3.org/Graphics/SVG/1.1/DTD/svg11.dtd">
<svg xmlns="http://www.w3.org/2000/svg" xmlns:xlink="http://www.w3.org/1999/xlink" version="1.1" width="1024" height="1024" viewBox="0 0 1024 1024" xml:space="preserve">
<desc>Created with Fabric.js 2.3.6</desc>
<defs>
</defs>
	<g id="text-1" transform="translate(512 742.522054) scale(3.614035 3.614035)">
		<text xml:space="preserve" font-family="Aquatico" font-size="46.506884242733285" font-style="normal" font-weight="normal" style="stroke: none; stroke-width: 0; stroke-dasharray: none; stroke-linecap: butt; stroke-linejoin: miter; stroke-miterlimit: 4; fill: rgb(255,255,255); fill-rule: nonzero; opacity: 1; white-space: pre;" ><tspan x="-114" y="14.609673" >SYNAPSE</tspan></text>
	</g>
<g id="icon-1" transform="translate(507.148728 417.682162) scale(11.558401 11.558401)" style="">
	<path d="M 37.3 18.3 c 0 -1.7 -1 -3.1 -2.5 -3.7 c 0 -0.1 0 -0.2 0 -0.3 c 0 -3.2 -2.6 -5.8 -5.8 -5.8 c -0.3 0 -0.5 0 -0.8 0.1 c -0.9 -1.3 -2.4 -2.1 -4 -2.1 c -1.1 0 -2.1 0.3 -2.9 0.9 c -0.9 -0.6 -2 -0.9 -3.2 -0.9 c -1.9 0 -3.5 0.9 -4.6 2.2 c -0.1 0 -0.2 0 -0.3 0 c -3.1 0 -5.6 2.3 -6 5.3 c -2.6 0.7 -4.5 3 -4.5 5.9 c 0 3.3 2.7 6 6 6 c 1 0 1.9 -0.2 2.8 -0.7 c 1.5 1.6 3.6 2.5 6 2.5 c 0.5 0 1 0 1.5 -0.1 c 0.7 2.5 3 4.4 5.8 4.4 c 1.9 0 3.6 -0.9 4.7 -2.2 c 0.5 0.5 1.5 1.7 1.1 3.8 c 0 0 2 -1.9 1.1 -4.7 c 2.9 -0.4 5.2 -2.9 5.2 -6 c 0 -0.7 -0.1 -1.5 -0.4 -2.1 C 37 20.1 37.3 19.2 37.3 18.3 z M 35.5 21.1 c 0.2 0.6 0.3 1.1 0.3 1.7 c 0 2.7 -2.2 5 -5 5 c -0.2 0 -0.4 0 -0.6 0 l -0.7 -0.1 l -0.4 0.6 c -0.9 1.6 -2.5 2.6 -4.3 2.6 c -2.2 0 -4.2 -1.5 -4.8 -3.6 l -0.3 -0.9 l -1 0.2 c -0.4 0.1 -0.9 0.1 -1.3 0.1 c -2 0 -3.8 -0.8 -5.2 -2.2 l -0.5 -0.6 L 11 24.2 c -0.7 0.4 -1.5 0.5 -2.3 0.5 c -2.7 0 -5 -2.2 -5 -5 c 0 -2.3 1.5 -4.3 3.7 -4.8 l 0.7 -0.2 l 0.1 -0.7 c 0.3 -2.5 2.4 -4.3 4.9 -4.3 c 0.1 0 0.2 0 0.3 0 l 0.5 0 l 0.3 -0.4 c 0.9 -1.2 2.3 -1.8 3.8 -1.8 c 0.9 0 1.8 0.3 2.6 0.8 l 0.6 0.4 L 22 8.2 c 0.7 -0.5 1.4 -0.7 2.3 -0.7 c 1.3 0 2.4 0.6 3.2 1.6 l 0.4 0.5 l 0.6 -0.1 c 0.2 0 0.4 0 0.6 0 c 2.6 0 4.7 2.1 4.7 4.7 c 0 0.1 0 0.2 0 0.3 l 0 0.8 l 0.7 0.3 c 1.1 0.5 1.8 1.5 1.8 2.7 c 0 0.6 -0.2 1.3 -0.6 1.8 l -0.4 0.5 L 35.5 21.1 z" style="stroke: none; stroke-width: 1; stroke-dasharray: none; stroke-linecap: butt; stroke-linejoin: miter; stroke-miterlimit: 4; fill: rgb(255,255,255); fill-rule: nonzero; opacity: 1;" transform="translate(0 0.05) translate(-20, -20.05) " stroke-linecap="round" />
	<circle cx="0" cy="0" r="1.7" style="stroke: none; stroke-width: 1; stroke-dasharray: none; stroke-linecap: butt; stroke-linejoin: miter; stroke-miterlimit: 4; fill: rgb(255,255,255); fill-rule: nonzero; opacity: 1;" transform="translate(7.8 -7.7) "/>
	<circle cx="0" cy="0" r="0.8" style="stroke: none; stroke-width: 1; stroke-dasharray: none; stroke-linecap: butt; stroke-linejoin: miter; stroke-miterlimit: 4; fill: rgb(255,255,255); fill-rule: nonzero; opacity: 1;" transform="translate(4.5 -10.4) "/>
	<circle cx="0" cy="0" r="0.3" style="stroke: none; stroke-width: 1; stroke-dasharray: none; stroke-linecap: butt; stroke-linejoin: miter; stroke-miterlimit: 4; fill: rgb(255,255,255); fill-rule: nonzero; opacity: 1;" transform="translate(4.5 -6.9) "/>
	<circle cx="0" cy="0" r="0.3" style="stroke: none; stroke-width: 1; stroke-dasharray: none; stroke-linecap: butt; stroke-linejoin: miter; stroke-miterlimit: 4; fill: rgb(255,255,255); fill-rule: nonzero; opacity: 1;" transform="translate(-1.3 -8) "/>
	<path d="M 33.8 19.9 c 0 -1.6 -1.3 -2.8 -2.8 -2.8 c -0.8 0 -1.6 0.4 -2.1 0.9 c -0.5 -0.4 -1.1 -0.6 -1.7 -0.6 c -0.1 0 -0.1 0 -0.2 0 c -0.8 -2.4 -3.2 -2.7 -4.4 -2.4 c -0.4 0.1 -0.8 0.3 -1.1 0.5 c -0.5 -0.5 -1.2 -0.9 -2 -0.9 c -0.3 0 -0.5 0 -0.8 0.1 c 0 0 0 0 0 0 c -0.4 -1 -1.4 -1.7 -2.6 -1.7 c -0.9 0 -1.7 0.4 -2.3 1.1 c -0.5 -0.4 -1.1 -0.6 -1.7 -0.6 c -1.5 0 -2.7 1.1 -2.8 2.5 c -0.2 0 -0.3 0 -0.5 0 c -2.1 0 -3.8 1.7 -3.8 3.8 s 1.7 3.8 3.8 3.8 c 1.3 0 2.4 -0.6 3.1 -1.6 c 0.9 2.1 3.1 3.5 5.6 3.5 c 1.2 0 2.3 -0.3 3.3 -0.9 c 0 0.2 -0.1 0.5 -0.1 0.7 c 0 2.3 1.9 4.1 4.1 4.1 c 2.1 0 3.9 -1.6 4.1 -3.7 c 0.6 0.5 1.3 0.8 2.2 0.8 c 1.9 0 3.5 -1.5 3.5 -3.5 c 0 -0.9 -0.4 -1.7 -0.9 -2.4 C 33.7 20.6 33.8 20.3 33.8 19.9 z M 8.9 21.3 c -0.5 0 -0.9 -0.4 -0.9 -0.9 c 0 -0.5 0.4 -0.9 0.9 -0.9 c 0.5 0 0.9 0.4 0.9 0.9 C 9.7 20.9 9.4 21.3 8.9 21.3 z M 15.7 18.3 c -0.7 0 -1.3 -0.6 -1.3 -1.3 s 0.6 -1.3 1.3 -1.3 c 0.7 0 1.3 0.6 1.3 1.3 S 16.4 18.3 15.7 18.3 z M 20.4 21.3 c -0.3 0 -0.6 -0.3 -0.6 -0.6 c 0 -0.3 0.3 -0.6 0.6 -0.6 c 0.3 0 0.6 0.3 0.6 0.6 C 21 21 20.7 21.3 20.4 21.3 z M 23.1 22.8 c -0.1 0 -0.2 -0.1 -0.2 -0.2 c 0 -0.1 0.1 -0.2 0.2 -0.2 c 0.1 0 0.2 0.1 0.2 0.2 C 23.3 22.7 23.2 22.8 23.1 22.8 z M 23.6 20.3 c -0.4 0 -0.8 -0.4 -0.8 -0.8 s 0.4 -0.8 0.8 -0.8 s 0.8 0.4 0.8 0.8 S 24.1 20.3 23.6 20.3 z M 28.2 23.6 c -0.4 0 -0.6 -0.3 -0.6 -0.6 s 0.3 -0.6 0.6 -0.6 s 0.6 0.3 0.6 0.6 S 28.6 23.6 28.2 23.6 z" style="stroke: none; stroke-width: 1; stroke-dasharray: none; stroke-linecap: butt; stroke-linejoin: miter; stroke-miterlimit: 4; fill: rgb(255,255,255); fill-rule: nonzero; opacity: 1;" transform="translate(-0.2 1.2) translate(-19.799999999999994, -21.199999999999996) " stroke-linecap="round" />
</g>
</svg>